#!OML:ASF H:\GeneralSubjects\Female5\Project 1\Capture day 1\Session 1\Female5.ASF
:FULLY-SPECIFIED
:DEGREES
33
root 0.196374 16.2425 -4.84442 -116.148 92.5084 -125.111
lowerback 7.00544 -1.53689 0.582831
upperback -9.4951 -1.89548 -0.934493
thorax -14.4437 -0.925013 -1.0207
lowerneck -14.9493 0.504404 6.02003
upperneck 33.2589 1.44452 -4.61871
head 13.8573 1.11086 -2.59525
rclavicle 1.14767e-014 -7.82715e-015
rhumerus -74.2155 12.0632 -88.5606
rradius 52.195
rwrist -14.7995
rhand -26.5329 -16.7552
rfingers 7.12502
rthumb 0.0310632 -46.7349
lclavicle 1.14767e-014 -7.82715e-015
lhumerus -47.2145 -26.2974 93.9364
lradius 94.556
lwrist -17.7992
lhand -40.7378 31.7089
lfingers 7.12502
lthumb -13.6789 61.2393
rfemur -33.324 23.7126 17.0693
rtibia 3.95528
rfoot -30.1634 -26.8652
rtoes -9.40889
lfemur 15.333 -9.14928 -33.4295
ltibia 15.7177
lfoot -14.9153 10.9147
ltoes -17.7017
34
root 1.01114 16.3047 -4.77625 -103.041 93.002 -111.832
lowerback 6.54827 -1.76811 0.456779
upperback -9.59533 -2.25783 -1.28546
thorax -14.2958 -1.10339 -1.28049
lowerneck -14.893 0.69823 6.21297
upperneck 34 1.87059 -4.90823
head 14.2122 1.3155 -2.69302
rclavicle 1.4387e-014 1.4064e-014
rhumerus -74.7393 12.3793 -88.9313
rradius 51.3567
rwrist -13.5282
rhand -25.379 -17.3316
rfingers 7.12502
rthumb 1.14552 -47.3083
lclavicle 1.4387e-014 1.4064e-014
lhumerus -48.374 -26.1823 94.716
lradius 95.6161
lwrist -16.7676
lhand -40.8793 31.4956
lfingers 7.12502
lthumb -13.8153 61.0169
rfemur -33.2981 24.8735 15.1971
rtibia 1.84896
rfoot -27.9336 -27.4
rtoes -17.6759
lfemur 15.0549 -7.23243 -33.0092
ltibia 19.4498
lfoot -13.2182 17.6508
ltoes -23.2177
35
root 1.81738 16.3129 -4.71214 -94.0776 93.4039 -102.528
lowerback 6.36902 -1.90634 0.553172
upperback -9.63488 -2.45968 -1.56596
thorax -14.2579 -1.22667 -1.61195
lowerneck -15.0858 0.767989 6.13686
upperneck 34.6841 2.16891 -5.18752
head 14.5943 1.42264 -2.76161
rclavicle 5.31749e-015 -1.31198e-014
rhumerus -75.0435 12.9235 -89.4991
rradius 50.66
rwrist -12.6115
rhand -24.9563 -16.556
rfingers 7.12502
rthumb 1.55373 -46.5301
lclavicle 5.31749e-015 -1.31198e-014
lhumerus -49.3552 -26.2601 95.6962
lradius 96.2302
lwrist -15.9759
lhand -40.2156 32.6329
lfingers 7.12502
lthumb -13.1756 62.1966
rfemur -32.4954 23.0974 15.8532
rtibia 2.53096
rfoot -21.0984 -29.5617
rtoes -41.986
lfemur 14.0737 -5.19685 -32.2607
ltibia 25.0382
lfoot -11.0757 21.5424
ltoes -29.2796
36
root 2.62732 16.2512 -4.65112 -88.8376 93.4632 -96.7337
lowerback 6.23391 -1.93861 1.00277
upperback -9.53497 -2.4627 -1.71271
thorax -14.0854 -1.2865 -2.02869
lowerneck -15.4973 0.794263 5.91207
upperneck 35.2998 2.43357 -5.47552
head 15.0006 1.48463 -2.81448
rclavicle 1.75117e-014 5.81445e-015
rhumerus -75.0625 13.757 -90.3066
rradius 50.119
rwrist -12.4784
rhand -25.0656 -14.8989
rfingers 7.12502
rthumb 1.44819 -44.8737
lclavicle 1.75117e-014 5.81445e-015
lhumerus -50.4922 -26.6005 96.9483
lradius 96.2945
lwrist -13.8592
lhand -40.438 30.7837
lfingers 7.12502
lthumb -13.39 60.3334
rfemur -30.6345 20.7515 17.8159
rtibia 4.049
rfoot -15.1178 -27.3467
rtoes -52.4586
lfemur 12.7793 -3.10063 -31.0575
ltibia 31.8748
lfoot -10.1024 22.9773
ltoes -32.5104
37
root 3.44121 16.1242 -4.58912 -83.517 93.5267 -90.5643
lowerback 6.3357 -1.92116 1.41746
upperback -9.39292 -2.40589 -1.84903
thorax -14.0081 -1.314 -2.41978
lowerneck -15.8437 0.750387 5.32294
upperneck 35.8425 2.60512 -5.45463
head 15.3479 1.49654 -2.68494
rclavicle -1.35671e-014 -1.32937e-014
rhumerus -74.8865 14.7549 -91.1245
rradius 50.0803
rwrist -12.0658
rhand -24.5872 -15.5973
rfingers 7.12502
rthumb 1.91028 -45.5685
lclavicle -1.35671e-014 -1.32937e-014
lhumerus -51.7766 -26.7094 98.0717
lradius 96.157
lwrist -12.1694
lhand -39.809 30.0414
lfingers 7.12502
lthumb -12.7836 59.63
rfemur -27.577 20.5918 18.7418
rtibia 3.79342
rfoot -15.005 -24.7534
rtoes -56.1931
lfemur 11.4746 -1.00258 -29.7848
ltibia 38.7277
lfoot -14.7981 20.9274
ltoes -35.2318
38
root 4.24389 15.9347 -4.52409 -76.0624 93.4254 -82.0122
lowerback 6.8196 -1.87736 1.92696
upperback -9.27851 -2.28414 -1.84905
thorax -14.199 -1.31414 -2.71805
lowerneck -15.6163 0.623884 4.63827
upperneck 35.9009 2.77858 -5.68043
head 15.3291 1.46 -2.6268
rclavicle -3.17895e-015 -1.41071e-015
rhumerus -74.5483 15.7221 -91.8013
rradius 50.1176
rwrist -12.1421
rhand -24.2844 -16.1244
rfingers 7.12502
rthumb 2.20267 -46.0928
lclavicle -3.17895e-015 -1.41071e-015
lhumerus -53.1717 -26.2464 99.2055
lradius 95.5154
lwrist -11.396
lhand -38.1494 28.7438
lfingers 7.12502
lthumb -11.1834 58.4257
rfemur -23.4455 16.003 22.0493
rtibia 4.01619
rfoot 0.532629 -25.2766
rtoes -54.5956
lfemur 10.1979 0.699441 -28.28
ltibia 45.6405
lfoot -20.522 19.1809
ltoes -36.11
39
root 5.01569 15.6862 -4.45904 -66.653 92.9157 -71.3377
lowerback 7.82506 -1.74187 2.77915
upperback -9.21075 -1.94431 -1.58456
thorax -14.7651 -1.23715 -2.95167
lowerneck -14.8905 0.473219 3.84177
upperneck 35.5928 3.07292 -6.2392
head 15.0314 1.42254 -2.65572
rclavicle 1.4387e-014 -5.41688e-015
rhumerus -73.579 16.4546 -91.9094
rradius 49.9049
rwrist -11.9378
rhand -23.811 -16.7922
rfingers 7.12502
rthumb 2.65991 -46.7554
lclavicle 1.4387e-014 -5.41688e-015
lhumerus -54.4989 -25.1036 100.254
lradius 93.9856
lwrist -11.9969
lhand -36.4839 27.3501
lfingers 7.12502
lthumb -9.57669 57.1125
rfemur -20.9453 9.47842 25.7365
rtibia 5.90676
rfoot -0.434457 -17.8541
rtoes -10.8239
lfemur 8.79386 1.83574 -26.5536
ltibia 51.1403
lfoot -24.5538 17.2315
ltoes -35.9388
40
root 5.74429 15.4168 -4.39617 -56.5452 92.2967 -59.7404
lowerback 9.67538 -1.48244 3.65203
upperback -9.1449 -1.36499 -1.17442
thorax -15.8524 -1.05682 -3.08573
lowerneck -14.5213 0.231921 2.684
upperneck 35.7439 3.33857 -6.68073
head 15.0333 1.34892 -2.58763
rclavicle -1.09332e-015 1.98785e-016
rhumerus -71.6592 16.9416 -91.4
rradius 49.1273
rwrist -11.2477
rhand -23.8602 -17.3738
rfingers 7.12502
rthumb 2.61236 -47.3375
lclavicle -1.09332e-015 1.98785e-016
lhumerus -55.2953 -23.7748 100.983
lradius 91.0659
lwrist -13.1909
lhand -35.7871 27.0835
lfingers 7.12502
lthumb -8.90433 56.8756
rfemur -20.4351 8.67995 28.0633
rtibia 12.7836
rfoot -5.45008 -14.0439
rtoes -7.47537
lfemur 7.19969 2.53873 -25.0974
ltibia 56.0898
lfoot -26.8574 14.2296
ltoes -38.4368
41
root 6.40334 15.2296 -4.32964 -97.5275 85.376 -100.925
lowerback 10.3274 -1.22274 10.1441
upperback -9.23742 0.51664 0.893947
thorax -16.3825 -0.766313 -4.82404
lowerneck -15.2195 -0.0693211 1.57991
upperneck 36.1466 3.53859 -7.24305
head 15.4156 1.20544 -2.6089
rclavicle -1.38652e-014 2.3059e-014
rhumerus -68.6239 17.2893 -90.0682
rradius 48.4148
rwrist -10.8046
rhand -24.506 -17.9486
rfingers 7.12502
rthumb 1.98871 -47.9191
lclavicle -1.38652e-014 2.3059e-014
lhumerus -55.246 -22.4361 101.08
lradius 87.3704
lwrist -14.6437
lhand -34.7779 27.8242
lfingers 7.12502
lthumb -7.93044 57.6554
rfemur -21.6976 8.55475 36.592
rtibia 20.0876
rfoot -9.41228 -11.7685
rtoes -9.60472
lfemur 1.71098 3.14313 -17.2942
ltibia 62.1961
lfoot -27.8313 6.4854
ltoes -32.544
42
root 7.01249 15.204 -4.25464 -82.5501 82.9044 -87.7912
lowerback 10.024 -0.39118 11.8024
upperback -9.76384 2.20716 2.08833
thorax -16.6282 -0.0777564 -4.76845
lowerneck -16.1283 -0.355868 0.901726
upperneck 36.3417 3.71507 -8.08697
head 15.7704 1.05556 -2.83473
rclavicle -1.22253e-014 3.06128e-014
rhumerus -65.6687 17.5999 -87.8079
rradius 48.983
rwrist -9.6176
rhand -23.5939 -19.505
rfingers 7.12502
rthumb 2.86955 -49.4655
lclavicle -1.22253e-014 3.06128e-014
lhumerus -55.9036 -20.5109 100.757
lradius 84.3841
lwrist -16.6086
lhand -32.2314 27.6741
lfingers 7.12502
lthumb -5.47212 57.5834
rfemur -24.2259 7.9014 40.0361
rtibia 25.803
rfoot -11.9886 -8.60685
rtoes -9.37817
lfemur -7.29997 4.42979 -14.3993
ltibia 67.6795
lfoot -24.8865 11.2557
ltoes -44.8357
43
root 7.63632 15.2237 -4.20247 -76.0321 82.0468 -81.9343
lowerback 10.4632 0.251574 11.9126
upperback -9.86721 3.30047 2.66864
thorax -16.8918 0.451765 -4.42912
lowerneck -16.6826 -0.721193 0.298515
upperneck 36.1143 3.58844 -8.70398
head 15.8028 0.817779 -3.01523
rclavicle -1.20265e-014 -7.15625e-015
rhumerus -63.1744 17.8002 -85.6115
rradius 50.5629
rwrist -9.49986
rhand -24.497 -20.1053
rfingers 7.12502
rthumb 1.99741 -50.0756
lclavicle -1.20265e-014 -7.15625e-015
lhumerus -57.4365 -18.3064 100.017
lradius 82.8705
lwrist -18.7458
lhand -32.5788 31.2933
lfingers 7.12502
lthumb -5.80758 61.1937
rfemur -22.4326 6.72735 41.3244
rtibia 25.9951
rfoot -12.8293 -6.38459
rtoes -10.0943
lfemur -14.8896 4.43429 -14.3207
ltibia 71.9574
lfoot -24.0012 11.309
ltoes -51.1758
44
root 8.26086 15.2813 -4.16967 -73.5175 83.2612 -79.4863
lowerback 11.1639 0.636992 10.4167
upperback -9.71797 3.59684 2.58202
thorax -17.1238 0.735285 -3.80059
lowerneck -17.3263 -1.09412 -0.491308
upperneck 35.9087 3.29649 -8.76994
head 15.8367 0.551654 -2.95606
rclavicle -3.8763e-015 -1.78906e-014
rhumerus -60.5169 17.7109 -83.4826
rradius 52.7501
rwrist -10.0316
rhand -25.921 -20.2439
rfingers 7.12502
rthumb 0.622042 -50.2227
lclavicle -3.8763e-015 -1.78906e-014
lhumerus -59.1246 -16.1568 99.0232
lradius 82.3798
lwrist -20.3041
lhand -31.7966 33.5525
lfingers 7.12502
lthumb -5.05231 63.4722
rfemur -19.5446 3.99149 40.1611
rtibia 25.1326
rfoot -13.5862 -3.96136
rtoes -9.90906
lfemur -21.2355 2.42656 -16.9416
ltibia 74.4862
lfoot -25.5309 8.72529
ltoes -52.0617
45
root 8.90392 15.3372 -4.09511 -72.8111 83.7297 -78.3652
lowerback 12.0924 0.986857 9.03122
upperback -9.44783 3.91209 2.78818
thorax -17.4013 1.04295 -2.91229
lowerneck -17.7132 -1.38426 -1.21864
upperneck 35.8895 2.96892 -8.39042
head 15.8865 0.351723 -2.72533
rclavicle 1.36167e-014 -6.36111e-015
rhumerus -57.8732 17.4346 -81.5364
rradius 55.3694
rwrist -11.2229
rhand -26.7213 -20.0526
rfingers 7.12502
rthumb -0.15094 -50.0323
lclavicle 1.36167e-014 -6.36111e-015
lhumerus -60.9456 -14.2734 98.0827
lradius 82.5713
lwrist -18.9649
lhand -38.7286 24.6286
lfingers 7.12502
lthumb -11.742 54.2795
rfemur -15.8535 1.94391 39.7153
rtibia 23.9349
rfoot -14.384 -2.25737
rtoes -7.3416
lfemur -26.4498 -0.0356261 -18.0174
ltibia 73.8675
lfoot -26.7643 5.37802
ltoes -50.0338
